<mxfile host="65bd71144e">
    <diagram id="MjV_sBSQR9J3i45ZFWnv" name="Page-1">
        <mxGraphModel dx="3130" dy="1440" grid="1" gridSize="10" guides="1" tooltips="1" connect="1" arrows="1" fold="1" page="1" pageScale="1" pageWidth="1169" pageHeight="827" math="0" shadow="0">
            <root>
                <mxCell id="0"/>
                <mxCell id="1" parent="0"/>
                <mxCell id="5" value="" style="shape=image;verticalLabelPosition=bottom;labelBackgroundColor=#ffffff;verticalAlign=top;aspect=fixed;imageAspect=0;image=data:image/png,iVBORw0KGgoAAAANSUhEUgAAAZoAAAB7CAYAAABNaUbwAAAEGWlDQ1BrQ0dDb2xvclNwYWNlR2VuZXJpY1JHQgAAOI2NVV1oHFUUPrtzZyMkzlNsNIV0qD8NJQ2TVjShtLp/3d02bpZJNtoi6GT27s6Yyc44M7v9oU9FUHwx6psUxL+3gCAo9Q/bPrQvlQol2tQgKD60+INQ6Ium65k7M5lpurHeZe58853vnnvuuWfvBei5qliWkRQBFpquLRcy4nOHj4g9K5CEh6AXBqFXUR0rXalMAjZPC3e1W99Dwntf2dXd/p+tt0YdFSBxH2Kz5qgLiI8B8KdVy3YBevqRHz/qWh72Yui3MUDEL3q44WPXw3M+fo1pZuQs4tOIBVVTaoiXEI/MxfhGDPsxsNZfoE1q66ro5aJim3XdoLFw72H+n23BaIXzbcOnz5mfPoTvYVz7KzUl5+FRxEuqkp9G/Ajia219thzg25abkRE/BpDc3pqvphHvRFys2weqvp+krbWKIX7nhDbzLOItiM8358pTwdirqpPFnMF2xLc1WvLyOwTAibpbmvHHcvttU57y5+XqNZrLe3lE/Pq8eUj2fXKfOe3pfOjzhJYtB/yll5SDFcSDiH+hRkH25+L+sdxKEAMZahrlSX8ukqMOWy/jXW2m6M9LDBc31B9LFuv6gVKg/0Szi3KAr1kGq1GMjU/aLbnq6/lRxc4XfJ98hTargX++DbMJBSiYMIe9Ck1YAxFkKEAG3xbYaKmDDgYyFK0UGYpfoWYXG+fAPPI6tJnNwb7ClP7IyF+D+bjOtCpkhz6CFrIa/I6sFtNl8auFXGMTP34sNwI/JhkgEtmDz14ySfaRcTIBInmKPE32kxyyE2Tv+thKbEVePDfW/byMM1Kmm0XdObS7oGD/MypMXFPXrCwOtoYjyyn7BV29/MZfsVzpLDdRtuIZnbpXzvlf+ev8MvYr/Gqk4H/kV/G3csdazLuyTMPsbFhzd1UabQbjFvDRmcWJxR3zcfHkVw9GfpbJmeev9F08WW8uDkaslwX6avlWGU6NRKz0g/SHtCy9J30o/ca9zX3Kfc19zn3BXQKRO8ud477hLnAfc1/G9mrzGlrfexZ5GLdn6ZZrrEohI2wVHhZywjbhUWEy8icMCGNCUdiBlq3r+xafL549HQ5jH+an+1y+LlYBifuxAvRN/lVVVOlwlCkdVm9NOL5BE4wkQ2SMlDZU97hX86EilU/lUmkQUztTE6mx1EEPh7OmdqBtAvv8HdWpbrJS6tJj3n0CWdM6busNzRV3S9KTYhqvNiqWmuroiKgYhshMjmhTh9ptWhsF7970j/SbMrsPE1suR5z7DMC+P/Hs+y7ijrQAlhyAgccjbhjPygfeBTjzhNqy28EdkUh8C+DU9+z2v/oyeH791OncxHOs5y2AtTc7nb/f73TWPkD/qwBnjX8BoJ98VQNcC+8AAABEZVhJZk1NACoAAAAIAAIBEgADAAAAAQABAACHaQAEAAAAAQAAACYAAAAAAAKgAgAEAAAAAQAAAZqgAwAEAAAAAQAAAHsAAAAAdzUAUAAAAVlpVFh0WE1MOmNvbS5hZG9iZS54bXAAAAAAADx4OnhtcG1ldGEgeG1sbnM6eD0iYWRvYmU6bnM6bWV0YS8iIHg6eG1wdGs9IlhNUCBDb3JlIDUuNC4wIj4KICAgPHJkZjpSREYgeG1sbnM6cmRmPSJodHRwOi8vd3d3LnczLm9yZy8xOTk5LzAyLzIyLXJkZi1zeW50YXgtbnMjIj4KICAgICAgPHJkZjpEZXNjcmlwdGlvbiByZGY6YWJvdXQ9IiIKICAgICAgICAgICAgeG1sbnM6dGlmZj0iaHR0cDovL25zLmFkb2JlLmNvbS90aWZmLzEuMC8iPgogICAgICAgICA8dGlmZjpPcmllbnRhdGlvbj4xPC90aWZmOk9yaWVudGF0aW9uPgogICAgICA8L3JkZjpEZXNjcmlwdGlvbj4KICAgPC9yZGY6UkRGPgo8L3g6eG1wbWV0YT4KTMInWQAAIRZJREFUeAHtnQl0HMWZx7tHI2l0H7YlywdGPsDyhfERwDaJwRxZIPAIAUIghHM5ApvdBW/25YJAXtgECCZOCAGS+DkmEMOyiXF4MWcA2wQIODbYHMbI4BP5knVYxxy939czX6ump3s00nSPfPzrvVZV1/FV9W/eq7++qj40DQEEQAAEQAAEQAAEQAAEQAAEQAAEQAAEQAAEQAAEQAAEQAAEQAAEQAAEQAAEQAAEQAAEQAAEQAAEQAAEQAAEQAAEQAAEQAAEQAAEQAAEQAAEQAAEQAAEQAAEQAAEQAAEQAAEQAAEQAAEQAAEQAAEQAAEQAAEQAAEQAAEQAAEQAAEQAAEQAAEQAAEQAAEQAAEQAAEQAAEQOBwIKAfihdxu2EEzv9MK1rb1lYS64iWtYQrSrVAOKCVhLXBHcGOowoiLaH84vbpo7U2Xdejh+I1YswgAAIgcLgQOCSEZuX7RtnyreHxr+7ST9+wJXiZEdEa3H4APaiUFES1QCi85ZS6giXnj+/607xjitYP1fV2pYavScMw9Nf3amXPftJev26/NunlpsgErVufqmn6cCMWqNbyYmU0gP16ILbX0PQNgcLIB1+oCq2dWB798KQRZVvOqNUOkFAavg4SxkEABEDAZwIHrdA8+olR9dQ/o+e+8EHed7WINk44JAlJMBbPDtBcHKNL4VgJOp0blG/GkYCmU/15o/RV5x4T/t5l40MraRKPKNU9SZK4BO5b293w3KcdX3tzX/A/aFxFWiA+Tj2Pxmcbo8Z5UZefwTBa9VB0wXWjCp+4Y3rJBnhnnvxEMAICIJBjAi4zXI5HkeiOPYAfrNZm/OJ14z6jU5/N2UnCIsMSgZFzjm0TOItLuqAXhcO3zSi48uapeY97MYGv3bmz5I53S654eZv+ExKXEj1fWbFzGwuLTKYhqscC5V13L6wfsuCiifrOTJuhHgiAAAgMNIGDQmhYYL67onPur9YVLjEi+jBHcRFSaUTGVVyCPRO6ntcjAEY0TwsUdTfdf2LBWZc2FLwlXfQlbjSM0DeXN9/6xu6CO9lzMb0WMZCFwNBymlhJifU87eWfjAtcfcXkyk0phcgAARAAgYOMwIALze82dI675dm8P8cOBBs8FxiG7SIy1u9AYmCEg9qJRx147NdnV1w9Utc7rLI0CRbHW1a1fmnxxrwnSWDyLYFxEhdZHkvjwaQTFmsYYpuXCSnQstqyJ08efMXJlfo+qw4SIAACIHCQERgwoaGJOjj7scg96z8IfitQ0guVNF4Mt3T0ZDIQmKRe43s8HQtmG3O+PqHk7aQy28maRqPyjNUtzxqRwMy0AsPtshEXERZb/0mnNO4vjwle/avjyxbREqC7G5TUCCcgAAIgkDsCAyI0K7YdGPnVxwvfMLoCQ/vrxTAiR4HhgoTIqMtknG2GNJO3Tu2M7oB2xYTwrffMKfsZTdw9a26J5gvWhE//0brOv5LABOz7QokqacWF66R4LzymhJfiatMyHk/o+THyxOgGh0QcCEVefWpKzZmzRmbmkdnM4RQEQAAEfCOQc6FZvD586r/9OfhCWoHhy7V7MYpAOApMbx4M21Rs8KkEFhgr0N6I0Z2nfW5o17Jnzqm8kMSmm8vIA8ubv6ptwaJN2k2mF2O31YvnQrczJwuMvb01gNQEi0lGQdf2Pj6r5LhTBhVvzag+KoEACIBADgjkVGjmr2y55qHnyh7u81KZMimnExlHD4YhKu351PRcInTbs01guEwNn6uObvnLORXTKC/6lRfbV7281WhImfR7ERjVnpm2jSWlnDJS+nCq5JLHXs6dU4tPvm5M0UqXKsgGARAAgZwSyJnQzF/VesNDz5Y+kFZkXLwYFhd5HiaJDgsFC0ahy+MwaSZ1U2Rc7uxij8VIPNsyd0R83+NvW42AJQB9FRcedJqxcLHYluUwzss4BKimOD2J9PcmlMy5eWzxqoxtoCIIgAAI+EQgJ0KzYG3k3NueyvtzWpHhC1SFRpmYHb0Ysz49T6/crpzESGmv5lsCQ0tZ8iCllFsb+5yhto/fKBCv5iIyKfsuYkNtG7dg/hVhUbIyS7KQsPbRFpEVnO4BiAa0H08tnnn1USX/sOohAQIgAAIDQMB3oXl+a+cxFzxc+EFakVEFhiEok7yjyJAn0xeBSVoiM+3Lv/89xF1FhqukEZekvRcet4uwSE8pApPwQKTciiXfLixOomI1siVIbBZ/vnT0mZVFjbYSnIIACIBAzgj4KjSNjY2haU+MaqJ/wfmdXqmhrwLDFhL7Ko5CowiUdJYkMg5LZWkFho04iIyr9yKd2uIUcbGVa6qoSFlfBEXaKDFfNz38Sjl689/PGlJXr+udSjGSIAACIJAzAuorKD3tlB9onPN4ZDFNdmWOd5ipImMTCDcvhgfoKDBcYLNh1mVRYnHpyzIZN+SQqcBwXae+ne4UE0HhNhI4j4N4LvEz178iICKgLCaStjeK5xuVs17csYx+jzOdbte2t8E5CIAACHhNQKY5r+1qC9dF5qxvDF7Yq8goPTsKDJe7eTE8wctB1WTC5VjSpnnFk2EPxtWLEXGR2GxMdql9khcjfUqcqMcRey+uHoys2DF1PvIogz0XOdiAQ5DrkWuSmKuqaYemZhY9WHr699fvvcatHPkgAAIg4CcBX5bO+Kn/6ruNvTQNJi+ZqV6MXBVP1hQcRcZNYLhBoh0n1WBNvIq4cHmSuHCGvb1NXMw2Nhucl9KOslyFxWyQ+COS3suSmDV+tW0/0zoJmUH7NBJWzaytHFOt75dzxCAAAiCQCwK+LJ1d/HTsZvov2nnJjCd424a5FyKTNEHbBCJJZPojMPY2iV8mSWB4PhePRX45meM9FhcWEA4sIpKWLu2xWn79Rzt+S+UX2OvgHARAAAT8JOC5R9NIbzM+/i6tI2nJzO7JKBO3m8g47sUo7VQolsjYBIbrWCLj1NbmxSQtj6kdKG2TxEXqqCKTgbjweNPtrYhZ8UjUWMr6Gy+eNmjK6dWF7/S3PdqBAAiAQF8JyLTY13au9ec/Hbs2qbAvIsNLZby/4vRsjDLZi32esJ1EhsVFDrOuvS0LTDqR4frqkejQUWRkMBwzzTT7Lep4rXGr7bk5eStycBGn1dg8sf9J1DH3fLgszfndH+15jG/UsJvAOQiAAAj4RcDTCYf3ZqruMrr0oB4XMBeRcfNi+CJ7ExmeoFO8AZsnY3kxbNBJZDg/EZK8GK5rW9bjamkFRqTaZXnMTVBMuyIIibFkHPW3HXdAy21LZlSPnVcZwrdsMgaOiiAAAtkQkGkyGxtW2++9EplF03LAfMJfFZmEd8AC4yYyLDC9iYx0ZE3eLDCKyKR4MSIy4sEoXozjnWTcgbShJAuMq8gwOT568WCohmOQ5TDHQs4UMeHYfrg2yqCAbD20qWVBBjVRBQRAAAQ8IeCpR1O9IPyG0R2c6fYqGR5xitD0canMumpFYKw8ti9iIoIh54lKSR6MNJS6cs52nJ6D4XIRF6WumrREUM20pWU5jLOTNvRFXGz1PT8lr+bNeXWDR+j6Hs9twyAIgAAI2Ah4dtfZS01G6fmPaDP1UHxPwexHmcAtgSFh4RdhmiEbkUk8hElvWNYmVAW0+tp869IaPwtri3dENaMrcXkJsUkRGWV80jitwHAlhyWy3sRl7pBA+JqjKm6fVKYtqy0o2EFWuuje70Bzp1b5cXv38Y982jz/lb3R2bysZXkyMiA/YhK0ZzYfuJBMP+iHedgEARAAAZWAZx7Nf6/oOPXXa0MvWN6MMolbIqP23B+RYS+Gv+uSH9UWTM/f+LXxoW+TydV00LxN8kUfKktsdLPqDN0djZ7xg7VtC578SDO/4WkJjTI2qmeGJIFhr0X0Mo0HYxcY+3LY3MG69sC40u9WlRXfS2PrSnTlGNG4hzzS2PHLH3zcfGFvYkOfcNaMzjz+lLOjrUwyJ+Xl710xs24w3haQCS3UAQEQyIaAZ0JT/UDXUqMzyP8lW/scbgLDVfqzH8MfJLuyIdJ49+yyc8jEe5lMkjSB530WjV58+ar2R9fs5LvUkifntAJjDlQUh0/iwS4wnCsiI/Gdx5Q3X3N00Qk0xg8TzTKKaLynXPJ204svt4RNIclWUNw6Zbtvzx1eU6fru9zqIB8EQAAEvCDA/69nHdiLMDqC8QcBE95CisjwkhkfFFJEhtvYvAyezM0JXTb8yZNZOEd/mERmHE3eGzIRGbMvXY8ODQb/sOLz5UMvGKez52MGFhhXkeG9EodNfmtMYoRidb9F0kumV+wkkRnVV5Fhs9Tmpcem1Yw+uSY/5pfImP2QN7S8qflkTiOAAAiAgJ8EPNmjWfTP5gotWhnQCuLeQorI8BW4faBMERieyJNuXU5s+LMnc/8cbeEl40PfylRg7NCo3WckiGM0rWXTU42Ranu5uVTmskxmCl5Kgx6REYHhKr8/vmrvvOoQi2GbQ5OMsqhtI4116sXarnUrWzoyatOfSs/t7v4GtXuqP23RBgRAAAQyJeCJ0HzSXHK07M04igx7Jxk8hOkkMrwnc+X4yOuXji/79/6KjMCg9s00gR/3cWvLlrX7uyXb9U6y3gSmx0A8dXVtQYxEZmI2IiM2ycY7NNZbh//903skz+t4ZUvnudRHgPpKXR/0ujPYAwEQOGIJeLJ0tn5/YCwTTBEZXirjQw2yTKZ4MlJsTuyyVJbI5M803z2n7CyvJkOys3XBtNAl0qfT7co8DieRYc9F9V5MG7zMljjunDToXLK/07KdfWLB7XVDdptm1N00SXPc18M2pn2alvziU1s5TkEABEAgWwKeCM2LzV3H2fdYZGDsyTh6M1KBYmtiTyyVWUXkzTz2+dCPafK29lassiwSDaUFfzx/eMF7biJjN51WYLgy3Zb8/PTBz1CKD88CXXf02lFFl4lBPZ9EWxEZEUPhZ4+5neRJOkmYKPONtrYRXIYAAiAAAn4R8ERoYq0FUxy9mQxGLZOlvar5lH9xWJs3vODn9rJsz2kCN34ytvA86xbmhEH7WHoVmES7SeWaNqGs8Aq2m+3YHNq/cFVpieVhiXDIWCV2aGe14TKpl9SeRGtrS+dop7bIAwEQAAGvCHgiNJphjDQHJMtkvPTk5MnYlstk8jNfI6N4MywyRlTXFkwpfJMm78+8uljVTkVFaOP5wwpWcZ5Mvmq56xKZWimR/q/RVQ/SOH25TZjsRr52dOkDDt1mncXXvTUWacjaEAyAAAiAQBoCnggNfUx4lNkHP/GfEJmUPtOJjFJZXiHD8b8Mi96vFHmevHF03g1ORh1FxqliIu+0QaG70hRnXdRQWvho1kZcDGzo1M39NZdiZIMACIBA1gQ8ERp66Xx8QzlTkUncBp3uhZh6UVirKi/hp/59C5OrSt4NhKKfcAeyTJYkMrLR7zACfiqfj0kl+nYq3uJQxcus92eXh9La0/Mj9FxQxKwjcdoGUtgdv5FDThGDAAiAgNcEPBEa2pnodPRk5A4zGrUsk5kxbfLbRca6sITnc3n83WXbrHwfEryncvuYqitTTGcgMNLmK4Mq5rMdOfcpbtXC/OqduJg4xdKviIxTHSmTuhwb+bEa9RxpEAABEPCagCdCQyKT+h4vZamMxcXxGRm6GlkqMy9M2tA3YY4dbj7iE/b6gu32qkaFXtEMLX4LMReyyLgEp3eLzRldssylupfZkWGV7uPqS0d2AVrd0Vbal/aoCwIgAAJ9JeCJ0OiasSXdLcyWyNiekUkarIhMIrO+INiUA09Bu4huIf5CbfAss1sXkZFlsqTx8omh30NPZ/b7DQAp9lwymEOl3z6TS9/IBgEQAIFsCXgiNPSCrg3WQFgwFNFgb0aWzaw6lGBPxvRmbPXNTyxTXk1+cK1a38/0H6cO+ge9rnmJUx9OXgzXo9sewrcdPfI2pzZe59HT+3ozdehHmFVU6rtQ+jFu2AQBEDh0CHgiNHpp10fmJSsCk4TA5skkLZepFRPfjeEsmle9WStS7bulyWP4UuXwq6h4o1Rx9WISFWaXFZx53TD9gNT3Oda3t1MPwtceq51zmRySL/XlPDnuWTZMzscZCIAACHhCwBOhOaEqut4+mnSejFlXnQxZYBSR4fKYoeV07+ChGXp4/tjhx1HXltiY43T4M7u86Oalk+pecijyKyugFybezSaiocbCUvJoj8sMks/nUiaxjNTQ4v8kyDliEAABEPCYgCdCM62s6H3HcWXqySiNzY+TkejsCkfoefvchv8cqXf8Ye7wCZOKAz/jV/TbA91b1rV4bM2pT0ys+YW9zOfzwlXNcaExX0PTW2d2MZFzjm2iM7FE+7g3cygHARAAgWwImLd2ZWOA29bWdG3X3uePWsaD256M9V+1VORY8WTkC5gcf9ARHa1Wy1X6FHoSn/q6Zd++fXeuiRafGgvEZkTytY7poeArg4PB1bQx7/udcA7XOlgv7FlJFLExwvSoLL//jIKalvaSx7EVVNGhzJH5he9ZZUiAAAiAgA8EPBGamvFlzdorncmb/uzNJEJGezJKfW62s6u7hDbB82hiT/4kphj1Oa6qqmqmLvhbLXwMaFjf5vw+MhEZHpyalsFKnsROwlNXULBZ6iMGARAAAT8IeLJ0xrcIGwHjVWuAimhYIiP/SUslB0/GLOJ6dLy+xzwrlupHcvx624E5Sdffz19NBEditjmnstjvtxokDR0nIAACRx6Bfk5ZqaACpZHfm7mKyFi1VJFhgVFExqrDCaXe2rZOzhnMf470sKLrwE3mJw0YhPxiHKuHlEk5n6cJLDZ80LuD2HNDAAEQAAHfCGQ4LfXe//XjYi/aa1nPydgLEue8FyP7MqrI6PkxzegMarui0ekuTY+YbFo+rHqtuyP+mph0v5Zaxmk5mJRappCbVRTaSEuTvCeFAAIgAAK+EXCZgvre353TKzbzGwAkWEtmksFxBp4Mi4yEdU3GxZI+UuNn2lvO0YP0Ak+Xo1cu8gurwpNo1BDIf6TX9qgAAiAAAlkSkGkoSzO0GU37NPSQo/k6e0tkZCnMtlxmeTJcLnVoBKrIcPrJHQe+zE/FZz24Q9QAX/viPfsXpBu+mwBxvmNQBGdmadmzjnWQCQIgAAIeEvBMaHhMV9XHep4vUQREHa+1VKZmuqT/tLuDxzfEpfiwz6b7IWa8Fm2v7u+F2kVItaPTpxrOqixxfv5JrYg0CIAACGRJwFOhuShU/pZmfgIg/myHObYMl8tUbybejvZpuvK0De3hs7O8xkOyOXszt+3eHr/BQr0CVcDVtFrHJa16OSfllfDXS807LlyqIxsEQAAEPCHgqdDMoNe4BMo6HrRGZhMZJ28mRWC4sYyK4r/tjN5m2TuCErsjkblPt7Ycay4tsqDIYfJJnMtT/lImcRpOIjanhcr+J001FIEACICAZwRkSvfM4I31pfearzlRRMbak+FelMnQVWT0xA0BFN+5af8o+u++38tHnl1YDg3R9RbctH3H09a3ceS7amrMaafPGtjfc+YwbhabL9dUPu9QhCwQAAEQ8JyA50Jz27TCTSQgjTLSJC+GRUYmQqkgMY+EDxEZTiY+mLahresiqXYkxG93tP30Na21xLxWVVw4Q84FBJ+rBzNWBYjPU8OaQbrekpqNHBAAARDwnoDnQkPr/sY3RmjXa1GXm8Vo4mNPxtGbUURGvdQ7Ptz/M/ovP0/NO1zTdJ3Tzm/a8q1+Xx+LDt+opwoSi40cZPg7gyq+02/7aAgCIAACfSTgudBw/z+dVfEi3eLcZXkzyiTnOD4HT8b8zAD9Z87xy7uNor2tHZ9zbHsYZZLIlN7dvnOl+bnlxO3J9jvH1HPXSxeREU/HVnFeeU4/cWDrHacgAAJHGgFfhIafNr9grH6NwXeguQW1yMWTMaIB+goniQ0d931yYKGbqcMhn0QmsKK14/lf7t9VJNcjG/dybkSSnTpVdOx1pY0ZK4JzUrD0F+N0vSupHCcgAAIg4CMBl/Wt7HukiTO/5snmdvJqer4fQGaTlsxsngz3qn5igAXGDIl4+9zhNEfqH8UzD6+/TdHowpk7199kXRV5cprypoV0+SxAqtDYBclqS0tqv6mtH3V6UdGnVh4SIAACIOAzAdWv8LQrEoTwDRMDV8vmv7Uvo/Zo82QcRUZGRd7Nw5s7lpCA+SaO0lWuY7qma2ZsfT9ZZNRBsOhIEPGRPIpVkeFq4ulIE4lJ9NdCZIQGYhAAgVwR8HXSpgk0b+jy3U1Gd6A6yZPhqxNvJXGlaUVGqfvujIpJg8rKUj4dnStgXvdDjE45b+/GF9dGOvpuWkTHoaXq5YiHc3PloBPnVwx93aE6skAABEDANwKqf+F5J+TVRP8wveJ08WqsDmy9Zioy3P7GDw88drh4NXQdk6/bu6V/IsMw2KuRQ845ppDq5cT23lpe+2a8FH9BAARAIHcEbFO+9x3PG1bw9vFD8hZZlrlHZcmsLyLDNl5pCU/+oL3rTMveIZogkam/aff2dSsi+7y5AhYcFw+HRefcgsGXk/D3vBrbm15hBQRAAAR6JeDr0pn0vp6edD/l//ZtowlvsPpQpioyXNfa/OcTZbmMTznQ26HpOzV52uSSQNeKmXWVNHEeku/qIpEZcfPuHR8v15vyDdvzRtabr+OXbP6111GKnJMsOIrwkAS1fzJscgV7mM4NkAsCIAAC/hHw3aPhoU/U9e4n5hXPMi8j8U91X0VGELDYvBsNF/7ms70/l7xDKSaRGXrdvi0ficiwsKiH07XYy+Xcqa7p1bDIKOGLoYorITIKECRBAARySiAnHo1c0Q1vtf7rUzs6f81LZ30RGhYXp/DcpKGTJpYVHjI3BpDIDDlvz8ZP1mkHrGdl7NelF8RXt+gGCntRyjl7Oiw6rh4PeTbEubWxZkoVhCYFHzJAAARyRKD32czDgTwwrfRhLT+6xG6ytyUze305P/3dHa/R5B2S84M5bm42qkZtf6eRRUbExB7z+EVg1DJJc3lSOvHiUhYbx0CezZnB6osgMo50kAkCIJAjAjn1aPiaSBiCdc/sWqcFYw183pvIuHkzGo2cvaJZ5aHlS8fVnkuTqctsy70MbHh/166yM/VtmwMFsWoWEhYLu6BkOkJp51Q/1bMxtm+uOW4kscFNAE7AkAcCIJATAjn1aPiKaNKLLD9ryAxKNiVdocvmf1IdOVHkcXVL5znfW7fncik62OLfNTaGvqhve4eGbIkMj5HFRvVOMh23vZ1qw753c16ghgUYIpMpXNQDARDwhUDOhYavYoauH1h0YhF7NH1/SjEhMuoez6Jw26JHtu8b5QuhLIwupQdW7xi8dyWZGGUXiCzMmk1VgVFtiVdDmF69f3Dd22oZ0iAAAiAwEAQU3yD33f9224GR33mveTMtn6UInuOSmYPI9IzaaNo6/ejh7DH15A1gil6VU9/69mLyXS7zcxRuS2n3Fw0ffl7JkO1+9g3bIAACIJAJgZQJPpNGXtW5anjxlh9OqKo3Ynlh1aajyKgVbGnztfr50ZrfNjV/yVY0YKf1rW9d3VeR0Quc765LdxFOns2UQMldEJl01FAGAiCQSwIDKjR8odcNK/r0+6MqxtCrMpPEJgUCeTO8XKYumXEdFhkJWyLdF0h6IOOj9713NH1p7GG3MbCgOB1c3y3fzVa8Tc82jGFo7XdVjb09XX2UgQAIgEAuCQy40PDFfnNs8ZYlDZUjKdns6M0kRMZwecWKBSwWG/CloqVLl+bpwY5XrDEpCRERJSujZG/tZPmMvZtvhmrP5gdkMzKMSiAAAiCQAwIHhdDwdZ5WW/rZS5MKj6L7nz9wu+503ozZJi+41K1trvJ/P2/KBZqhsWhaoTehsCr2MyHLZ7GuwPL5pUMdRa6fptEMBEAABLImMKA3AziNnp+z+eqGpkWvtnReapYr3owqNOqSGdejh2iatk4ZUzeQt/PS2AP1rWtaaMglPCYWmLSBXxXTm5fmYMDoTv7SJlchS7G/dI6omFhT0+bQBFkgAAIgMGAEDhqPRgjwXWOPT6j5+g9rh1woebxklk5kuN6skvLZAykyPIa3uvbX9yoyLC4cRGQ4Vo94aZ//Xp9Xdw5Eps/Y0AAEQCAHBA46oeFrJsEwrh1d/OSGhqOq51SHnuuVQ75+9hNjawb8E89rmqP8IKq7J6OKC1fkc3voh+hMCZc++e3ioX+1m8I5CIAACBwMBA5KoREwlZX6vqXH1J6xeELtsbRU9pLk98R68wnFRdO2ThjzTE/ewKX2lobrHJfLRDx4aE7i4jZkh7q8bJbch9G6oCX/6yzObmaQDwIgAAIDSSA4kJ1n2vdp5aEPqe6p77W0DFqyufNUXQ+MHTUosPKauqrVNMH2shGSaS/Z19M1oznFioNYpNTpQ0ayyGjaQv2YE+rryw7J7/L04bJRFQRA4BAmcEgIjfBtKC/fQ+kn5PxaSRwkcbluvOv5UFioXG4YuEGvu/GcsrL3PO8TBkEABEDAQwIH9dKZh9eZE1MntwffNzticZAj255tIiN3nE3uLl1GtzI/mK15tAcBEAABvwkcdLc3+33Bftsf3fHmG/QJg5l92otJNyib0HDVaFtw0+ZBUxto2TD92xTS2UUZCIAACOSIADwaj0FPbi2/xTOR4bHZ9niMcKBjzaCp0yEyHv9wMAcCIOAbAQiNx2gvHXLManq7QatnZhWPJtadF1uW13Bsta7v98w+DIEACICAzwQgNB4Dpu8mRye1Vl3isVnT3P8Wjps0ubh4ix+2YRMEQAAE/CKAPRofyNKraPQxnf94Xcs3ZmZlXvFmFkbGTDm7tPqdrOyhMQiAAAgMAAF4ND5A54cnfxOacSq9gKw9e/N6172dR42FyGRPEhZAAAQGhgCExifup+h6231do8bQe9r6JzamN6NvvLdjzNDzK2s3+TRMmAUBEAAB3wlg6cxnxLsMo2zmnrUvBCq7+7SMFttf+MPG6ik/Iu+o58tuPo8V5kEABEDADwIQGj+o2mzyns0z7ftPuym2abFeHB1qK046jTYXPPpAaOytZ5eW7kwqwAkIgAAIHKIEIDQ5/OFYcLZ3dIxY1r3/pG0lnScaWmyEpgdayzuL3pmiF62aVFz+7khd78jhkNAVCIAACIAACIAACIAACIAACIAACIAACIAACIAACIAACIAACIAACIAACIAACIAACIAACIAACIAACIAACIAACIAACIAACIAACIAACIAACIAACIAACIAACIAACIAACIAACIAACIAACIAACIAACIAACIAACIAACIAACIAACIAACIAACIAACIAACIAACIAACIAACIAACIAACIAACIAACIAACGRE4P8Bc955ke9PlbgAAAAASUVORK5CYII=;" vertex="1" parent="1">
                    <mxGeometry x="500" y="300" width="410" height="123" as="geometry"/>
                </mxCell>
                <mxCell id="2" value="" style="shape=image;verticalLabelPosition=bottom;labelBackgroundColor=#ffffff;verticalAlign=top;aspect=fixed;imageAspect=0;image=data:image/png,iVBORw0KGgoAAAANSUhEUgAAAgAAAAIACAMAAADDpiTIAAADAFBMVEUAAAAAAAAAAAAAAAA/AAAzMzMqKiokJCQfHx8cHBwZGRkuFxcqFSonJyckJCQiIiIfHx8eHh4cHBwoGhomGSYkJCQiIiIhISEfHx8eHh4nHR0lHBwkGyQjIyMiIiIgICAfHx8mHh4lHh4kHR0jHCMiGyIhISEgICAfHx8lHx8kHh4jHR0iHCIiHCIhISEgICAlHx8kHx8jHh4jHh4iHSIhHCEhISElICAkHx8jHx8jHh4iHh4iHSIhHSElICAkICAjHx8jHx8iHh4iHh4hHiEhHSEkICAjICAjHx8iHx8iHx8iHh4hHiEkHSEjHSAjICAjHx8iHx8iHx8hHh4kHiEkHiEjHSAjICAiHx8iHx8iHx8hHh4kHiEjHiAjHSAiICAiHx8iHx8hHx8kHh4jHiEjHiAjHiAiICAiHx8iHx8kHx8jHh4jHiEjHiAiHiAiHSAiHx8kHx8jHx8jHx8jHiAiHiAiHiAiHiAiHx8jHx8jHx8jHx8iHiAiHiAiHiAiHiAjHx8jHx8jHx8jHx8iHiAiHiAiHiAjHiAjHx8jHx8jHx8iHx8iHiAiHiAiHiAjHiAjHx8jHx8iHx8iHx8iHyAiHiAjHiAjHiAjHh8jHx8iHx8iHx8iHyAjHiAjHiAjHiAjHh8iHx8iHx8iHx8jHyAjHiAjHiAjHiAiHh8iHx8iHx8iHx8jHyAjHiAjHiAiHiAiHh8iHx8iHx8jHx8jHyAjHiAjHiAiHiAiHh8iHh8jHx8jHx8jHyAjHyAiHiAiHiAiHh8iHh8jHx8jHx8jHyAiHyAiHiAiHiAiHh8jHh8jHx8jHx8jHyAiHyAiHiAiHiAjHh8jHh8jHx8jHx8iHyAiHyAiHiAjHiAjHh8jHh8jHh8iHx8iHyAiHyAiHyAjHiAjHh8jHh8iHh8iHx8iHyAiHyAjHyAjHiAjHh8jHh8iHh8iHx8iHyAjHyAjHyAjHiAjHh8iHh8iHh8iHx8iHyAjHyAjHyAjHiAiHh8iHh8iHh8iHx8jHyAjHyAjHyAjHyC1acVFAAAA/3RSTlMAAQIDBAUGBwgJCgsMDQ4PEBESExQVFhcYGRobHB0eHyAhIiMkJSYnKCkqKywtLi8wMTIzNDU2Nzg5Ojs8PT4/QEFCQ0RFRkdISUpLTE1OT1BRUlNUVVZXWFlaW1xdXl9gYWJjZGVmZ2hpamtsbW5vcHFyc3R1dnd4eXp7fH1+f4CBgoOEhYaHiImKi4yNjo+QkZKTlJWWl5iZmpucnZ6foKGio6SlpqeoqaqrrK2ur7CxsrO0tba3uLm6u7y9vr/AwcLDxMXGx8jJysvMzc7P0NHS09TV1tfY2drb3N3e3+Dh4uPk5ebn6Onq6+zt7u/w8fLz9PX29/j5+vv8/f7rCNk1AAAjP0lEQVR42u1dd3wVZdY+N8klCSShBwKEaugiGKoUC7AIawTFKKibhRWyimIExagselF3jYUSjbqxgMSCBrAQddV8IlJUNCIgSEdCLyFAgPSb+X4hIdw+78ydmfs+977PP/wDl3PO88zMW04hChSEtul344R7H0vL/Ojz3A2/7s0vLCwstEqSJJUUFhYW7N2Rtzb343dfeebhe8Zf3zPaRAL+AVNM/1tT5n20ZvtpSQkqj2z+6p25U0f3iBIhBIW58+jp6V/sLJO8xOm8D5+dPLSlCCgQ9R0TUrPySiRNcSYvKzWho/gycI6I+KT0dRpTb4uz69KT4uuJOHP53Pd74N2dVskAXPhhwYT2IuA8IXr8/PUlkqE49tnjQ0JF5DlAy8T0vCrJJyjPS0sQuwRfImpsxk7JtyhbPbt/sGDCBwgaaFlXIXGBU8uSYwUhhqJ+QuZhiStsSxsRIngxBq0f+KZM4hDHF40NE+zojXYp66wStyjOSRKrQh3R/omNEu8o/nRifcGUHmiSlFslQaA4O8Es+NIWYRO/qJCAcCKjvyBNO8Snn5TgsD21hWBOCzR/eKuEifLPxoqtodcPf2axBIwjaW0Fh+oRmbxJQoc1N0FkEahD3MtFkl9g5/0Rgk3FGJJdKfkNzqaLBAJFCL3nd8m/ULlskKCVFREpByU/xDqxGGDb9llOSX6KLUliWyiHNhklkh9jX7JIKfWE2HS/pr8a+Sniztgd2vo//dU4ICTgEs3SAoL+ixJIFmsBp5V/6lkpgLA9UewIbBE+q0AKMPw8QtB+CabEfVIAIreXoP4iBq6XAhPWLFF0TBT3sRS4KJodHuD017eUSgGNg0kBzX9CvhTwWNUjYOnv+o2gvzpzLD0wawnCLeWC/BocDcTvwLAdgvjL+CLQEkYaZVYJ1m1RbAmoa8LEo4JyR2yKDxj6Y5YLul2gIi0wbglNSacE2a6xe1gA8N95rSDaLSpf8vuXQNI5QbMnbOvt34v/pYJiGZSkBvkv/8MPCYIZrolb+Sn9ZotVsMuCEzf7Jf/dNgpqWZHVwP82f8kXBK/s2H61n/Ef/YUgVRHKZvlV1mj8fkGpUnze2H/4Ty4TfKo4F7zST+gPe0uQqe6GcJJf8B+7QVCpFpl+0G/wuuOCR/VYG4O++0utFCx6g8PXQPMfKW7+vUVFKjD/cSLvTwMsgk0WG3RCsKcF1jXD5P+2YsGdRicCcYj8p4i7P81wcjAc/SGvCdo0RMntYPxHiMsfbVFlgeK/lbj71/5UEKivUK8Dgi/t8VUkCv+jROavLvgFZDt4U4ngSh9sb43A/wRR9a0b/uzEP/9TxfZfRxzozDv/0wT/uuIY573lUgVFOqNwAM/8WwRBuuPcDfxmfywQ9BiAC3/hlP8gkfxpDEr5LB0zZQpqDEL5TTwK4EVBjGEoG8Uf//8WtBi5DhjKG/+zBSmG4gxnPcWmC0oMxkmuWgxPEm0fjT8T7MJR+qeo/vABDnDTXnasuP/zCXZzUjc2qlRw4RtsacID/31E/o/PsJaDvpKtDgoefIePfN5IJmoLcPhq164VwC7828f8m78GDl5pVs2f85HfAff5VgDQ9T9z59T8GYNcxFzu08vhJ5D5z29QK4CmI5HdKLrKd/wnQicAjqNLAqAVyH4cauMr/odAFwB8Q5cFEHse2ZONEb7hvxN0/4eyLjYCwP6WSV/6pGwwCrv/SxrZCiB0J7Qz83yRAYbd/+lghJ0ACHodKEl/ExkgCnEH2QuAsPV8vqfR/A/HvgFeY3IUQCz2lcauRsby3+4kdLgqavow2wqAHsd+pa00dNRQWB52tGoXTXYCqLcd26fZRgrgbexYHWvoQgA0Atsp62gDS4CxQ1W3ZrYXAGVje1XY0Sj+B4KnAK0zuRZAG/DUlk31jeE/Gnz6X2XdcE4HAcAXty825gQoBzxMr5A7AdT7A9y1O0UNiDwKmroVAA0H9+2MAZni3dFbQN9D7gVAH4E7ty5Yb/5DN4GHKC/IkwDQ14HSv/QWwHzwAFltW+w4C4AeBfevYpC+/I9ELwLMJM8CCNkC7uDeKD35b4zeBLiwuYwAaBi6xBfpKQDwszLHJGpXAqCl6D5O0I//ZPTYbAyWF0DLs+BOnm6rF/+dz4OHpsphCJ9LAdAj6DJfpdPNcNAa9Mg4HpW6FgD8OlCapo8A7kOPy9kYJgHQUPR14NlYXcqAT6MLIIXYBEAfoHv6hR4C+AQ9KlvNrAJoeQbd1zu05/929JhI1xOrAOhhdF9Paj5dpuFh9Jh8QOwCCNmM7q3mx0GL0CNyrrUCAdAQ+L53I7Xl/zr4gDxKSgRA76H7+2cDLfkP340ej12hygTQAn4d+IKWAsDvBH4jKRMAzUT3uLKvdvz3qkCPxnJSKgD888A87U6Ev0OPRXF7xQLwg3Vgslb83wn/AXCTKOVRAPQuutenNDoMiDiEHok9YWoE0AL+7PtVbQTwPPwL4K+kRgD0EPw6sLcW/MeVocchh9QJAP88cI0WAvgUPQqlnVUKgAbDrwPHe8//tfAfgLmkVgCUhe773lCvKwF/QY/BgQbqBYC/DpzhrQD+Bv8CuIXUC4BS0L0vbOrlJUA+egS+Jm8EEIJeCSct8E4A6JVSUllXrwSAvw4s6+BVGkgBugCeI+8EQO+gR+ANbwTwLLr3hyK8FUA0+jqwvJN6/psXoQvAc3IkiwDwh6K+o14Ar8CfhJm8F0DwRvAgVHZVy3879EPgCpn5ukwCoGvQ14EfqBXAf9FfAPNJCwHQYvAwWHup4z8WfSLopYag3goguhA8EMvVCeA19BeAbBN9RgHQA+CBqOqnhv826C+A9SatBBD0M3goctQIIAN98SufDcEqABqEvg4coJz/Fuj9ADNIOwGgt0eXVioXwHPgLhc01VIATcHPxKsUj5SJQj8BnUJaCgC+Q/6SQLsGZKqKUCCAoA3Y8Shvp4z/UPBqcCvTqkeBAKivFTsiC5UJ4B7wF8CbpLUA6C3siJxvokgA4AnR9g1BtRFAU+xBadLjSvgHn6PJ2idNkQDQu6QdNisQwOfYvm4M1kMA6OvAiQqKgbAXPFXDSA8BoK8DfwmYRBDmFBiFAqA3sOPCPEogCjsT7ExLvQTQDPs8cCmrn+CnXg+RXgKgf0IHpqwFo5vYzVG2mfUTQNBP0KF5jM3LodgvgOtJPwFQPPQ6MJ9td4TdKllJBqRyAVAmdHCY5ks3g84EutBWXwE0gT4P/IzFReyBGY+SvgLAHptTGevvS8BdoXoLIOhHP18G9vf/j5xXAqD4SuD47JRNlKXXkflXmACvSgDYERos510YchFEcXsjBND4BHCI3pLzbiKyvOeQEQKgKcAhKpLrIv8lsHPuGoJqLQDodeBdMh0ByoF9u4mMEQBdDbwO/Nyza/cD8/8VGSUA5LLJimiPnq3H9cx9Q1DtBYC8DrzPY0sI4Bq4p8k4ASBnTXvsH/w4rl/76xspANMPsIGq8nRb8huuAG4lIwVAfXDXgTPde9UBl/9cMlYAwNXz6907NQvWqbKuRgug8XHYb4D7K0HchKc0MloA9A/YYD3gzqXWsHuAo1HGC8D0PWq0vnPnEm4vpAlkvACoN+o6sNLdWVAuKv9rTb4QAG79zGQ39SCojUErVDZC9FYAUUdAA+YmbeI2VEHPJ98IgCaBBuyc68Q51M74xxr5SgCm1aAhG+nylvsYqDdJ5CsBUE/Qqdou+8UMRD3YMvlOAJSOGbM9rnyxYPpi7Uc+FADqOrCT/6QCZJAvBUB/x4yai6SASMxksFNNfSsA0HXgx86ejMOU8hTyrQCoJ+SDczrEyZFXIflnagiqqwBoIWTgnNvF7IRcAfYnnwug4VHEyD3p6EYMpI7fJN8LAHO8stON4J2IXjA2BNVZAKbvAENX4lhEAzkh7H7iQQDUA3EdOMTBiT8AfdgSwocAaAFg8GY7lIQBJgMxNwTVXQCRgM31v8a/Cl5CvAiA7saL3jn7bnrz8Tw425IfASCeB/a18wCw0GUG8SMAxHWg3QrajDcjbpuZJwHQPLgAZtmaD9gZ6nriSgCRh9ACuMvW/Olw/C8lvgSAd5JW1czG+vfQrL/QjjcB0LdoMRyDfBOUStwJAG4daLFJbELrga2sIagxAqCXwIJo0zgYrkH8aOJQAGjrwAOXTX8QjP8VxKMA4HosXl4FLsYyvLgDnwJAWweOqDMcrDPMHG3oCrtnV+2Wsq9GAuiOtQ6cdcnuelh2K24I6hItn7Zp8bH2tmBNFPACVCDfr0tsxXoB3KQBU70zHQ6/D1uaaPCzEVDrwE2XzL4Div+vvKYpKMFVJ4Rzmd28VwBUKEuCEYvCyjp7u1tL3uHmp625CSZvFfA/pFjG1Rq9DMnoZ7wjqGOax4EIO1Lqe/f7cUgjt8bWGr0N6fSigTf0DMmW7etzIq2NVwp4HiiYT9QmAyBtAsarpyZ0ksN298fa9/XL9qPgyrKu9mYdeBAnmO/VmNwZiP9c1cREp9qv0K05g+sOgkKTfrf/b/KS1Ccc344TzZ9rLB4DtALsqpKVqxy2fWfS29qfBDp+HPalNvb/dWAh3E3A8+q2fSNy7LPed6c0cD4KviL9vN1fKsrs6vfrwJqzD5w2J6oagkYmb7f/lXV1mz2Hu4ColP2abAufgwloTW3tFzD2TlRORgeHbV9pVk8Pl0FOR0SbksOV/5/1/0QJ6J1Y6UDKG4LGZ9m38TpqaSZ3GxifZb8pOp7WWrECYMpsLhaJB6E0CK3oqYyGekkb7X9gw0Qzy3Vwm+dO2b80FvdWqoCvQUL6DlRngAWKOGieetBh2zeCOR8gNGmrw7IhMdgv14GrkGoCFDUE7ZJuv+07m95OWULIEIeNw15l28L/YMR0N9IH6+/eb/sUZQTFOW0Lu/jdOrC0elU1A4N/5oagEcl/sL6/ZVLCGqbky35F3GE8RlSjYQqDWRuCtrI4rOCyrvQiJzA4YZ29Gb8xbwsxNtfxRPQRhKWvsd32Lbc/0D08u5m3SaGDPnLYSc6J9qN14DgiWotg6KlmDNu+RIci943JYVpkBcdYChxeKkwDKp5FiOt9KOdAU2Xj3SjlgOIPNmtaeFjSNuXbwvB9AHF9iojOANgp2xC0c/oFh21fe03rAkyOG4s9qbK70lswvqxhCCvAgZqzo7wwRLnGANaBK4jaAgjgTc/bPhXvZ1WVQQ0VfmWuKOE+smuJ+vHPv6eGoDFO2z4FI8QUl4aZla0zn+E+tLuIRvMvAPcNQa/JdtyjKWoeq6Y2cMgy9p1mOPfngYUIrU1+D3H3OK5Xe0rjVXGogrMm7ocwWINoGu82Vl2ryQdZy+pg9tPmz3mPbkN6gncTl7i+qbFfkiu6qdGgPJz1vqkT7+vA9twXMhS1kt/27VWZwutVfwDnbaGrG+e5nIe3N2VybuEM52M5L7M1NGsQwZJzEr6X7/BeRx/ybeBWhyyuWMckT+X5WpoJoDrr7Fd7c52yzuhmvuM7jvdlyg2kdcamlgKQzzslyuE6vndy3tfmQ7uyfofLeVU521oLQCbznPd14BT6kWfzbBqCOqXnaFDMr1WTqAj3tSe8t194kDbzbN5jdcfqWtVt6SIAz9tCrteBqbSLY+t2h7pO0fWiclMnAbitP63GjRyH2EI8tzUaXZOkr2Htto4CcF2BfhEr+Q3xC3SSX+M+vlimY5+PVbbkatIMWjeKdNGD4o5qsXbkdx7Hy3SaW9uKO9DVDts+b/u36C2Ai40G7LeFRyxNiZ7iNsivUhG/nyfHUl2vOzgZIQDnPlQlWT1CuU28zKTz3ArguP0HdeVw0hr6CIAo6iH7hX/Vl9yOGH+bMGqDNeniaJgA3PWi5BDvUCWAldr0cTVSAK660XKJd4n/mbFadXI2WABELece5z64S3kXQHn2ININOgug+rZwM+cCeJ8qeDbvTHosEbAA2JqT+hJZxPFd1U6tt32+EED1tpDfsxZpEbfbwCoNbvv4EABRZAq3+eFvcloaWPJqZ9IfRgmAKHj8Oj4F8F8q5PP5z471KwFQ/Ho+BZBBvO5Uzj5Sz38E0HIxr5uthbSf2/XJrr/6iQDMKfyW4P+HtnO8R8nt5g8CGL6V4xDPoV+5PgZKj0QXQKdsrg+CHqF1XNsnHU4yIQugvoXz2rBp9A3vp9U/D8AVQEI+79GdTJ9yf19hzYrGFEAfgAZsd9C7/BspnU4JwRNAk3SEm/Yx9IqEgB2jwAQQknwSIrCDAPrY1CCnA5IArt8CEtZu9DCIpVJxWgSKANpkoQRViqF7YGyVDiZBCCDcUowT0zCUvuY1+O5K/gWQ8CdQQEuJbkASgFSR3ohvAfT6DiqeR4l6Slg4lRLMrwAap1dgRXMzUXMJDRuHcCqAoKQTaLH8hiioAk4BVdlteRTAsE1wkZTeJaKjeGZLFyxhvAmgdVYVYCDnERGgbqt7RyRyJYB6KUWQYXwUaMqlI3K78yOAhL2gQZxERIu5tGzPYdm/UvZ8JB8C6M5wpb6ez5uh6iuWp7m0zJrAkEpxJDnI9wJolCZfYL3rJk77cVa32prKp2mHml7BkEz1yyAfC8CUdEzWyPOW0EmcfgIiOO5htYIpnbIqq4UvBdBPvs1idYlDh7OcnqpV+9CD1wXK36sTquUjdzq1nq8EEJNplTXv18FEQd9zGuLfLhau8SqAc3GMMd452icCYFFnwcWDa257RK286Ai3tavrLyaCDfyF4XPRwXgB/FW+xWb5gotXVwO4PWzNuOhJHre71DnM66yy9AhjBRDH0AT825qm0Q34nc1aM4yB34kBFbUDIyMs8jutQyoKCFQLoIFFfjT0gUvpK2/zew6UcNFAjqcc77101NOZYQrn6l4GCcCUeEDWmMu3FTxPDqspvZvMsYVvKTlttWY1N0IAVzMUU+XUjZVtVcBvdK01Ih3KsQCk2xXdtxQqyxZRI4CmDOn+f/zl8tviS46Dm1+7m+VZAAU2Q8NiGVYrvw3VVQDmmfKV3qem2ahwBs/B/bbWyNM8G/mNSWHORU47/QRww+8Kv0M9uE4Qzqi18geejZQeUpp1xZ4tolAAsQzp/quvsv0XoXy3CZxWa+abXFtZepXivMsDSToIgKXS23EvupDryErX1Zo5k28ztznMBuvKkMLybU+tBZAg30unzLGdxUjOs8QuVV2P4ttMaYGK2ovy9IZaCqD3GobFR0eHf9TsCN9xPVn3beNcAFVj1LyOC+S3hKwCYKn0dnEjlc15XFfX7VULObf0SDOn4Hb4WP6fbeiviQBCHpCPz+mHzE7/bgrnUa3bBBCt4t3UT9RVYFdltfReANdtZvh/XGSldOI+T/gfdbbO491U6R6XPRjkT1nPW0K9E0AbhnR/l3lpIT9yH9Q+dcbezb2t5zur/TZ7ajcpK4Dw1HPy3yfXman8N94ov/xsdOfeWCnPrPpixn27STkBJOxj2G1Eufyng/lvELTpsrXBF/hXwNPurmbzGUiKVCOALl8xiMtNdUrEbv4jutjG3h/4N7dysJvHNPJ5+WyRgxNNSgXQ+GX5E0f3n5cl/AdUetDG3gUA9u6LchftKxjSszYMUCSAoCT5LuoeFpgQbVdsN8kTEAxe4n41N2Kb7L921W7SrQD6/yS/9fNQo976FEA4S23l2wFBANIE71K0C53aTboRQCuGrd+vHrpUBH2LEM31djYfQzD5dFsvizS2j2IQgJkh88hzn5pHIR6neXY2fwZh8xqPp/t9GY5eLufquRNAwh7ZH6nIbObJjj4Y03hvtzP6cQibpVmee/RMYcgWeTLckwBYrpr/r4fnNoF/YMTSPnFqKIbR5f28L9W2aTfpKACWdH/ZbpWvYoTygEOLkwsYZv8hN0qyM0MW7qorXQqApQKp2BIuY8AokFZBWQ52o/Q3zNCiXculj7idAPoynIbZLyFcoTlKz60pDobPBbG76iaGhk3yNzg1y3gbAajZRLjCSpA4SnEOhg9HMfxES21atlW3m6wTgLpjBBe4DyWMR52SrMpQTF/JUgTKlMXR6pIARsvX71a+zpI62vUCShQ/dLJ9NYrp0r0sSbzB98sfxxbVFsYzJESt6c3ULTAPJohTnYyfDWP7ha5MefyNtZvZwzq7Lg0mhpJzR43+OMb/ytgUqLc2rXnKWKdXDq2ECeFOF+/MUzgKeI65g6cGk5Gd0v3doeF+nAi62k0vxzHfej2rArye3LlzDHPl6Ac4AZTGurA/Gcj+fPa5IR29mYx5ZqaZ+T+6Cyh+Fa7KpmKR2p0vU9AFgKGm291GUUETyjaFQOH7zqULUH3j71SggJCUM2r+C0VtaIOgZgU9QpiZ7LYv5/YK2GHq6+J4VKasEfUTSMGTXG+kB0L5sFbZ7CiWAgIbuEv3d/vzZUix2+vmLYY1POZx7Xu71UEm58N5s7EDKnQL3LixGMqL8r4K2/tFvcD4mO5OUNpwMBMqctJIN27cjOXGbsXdYVn6u6oZSDUaa17UaXcnqaFgg4/+q7zF7wjZhL0c5SPpoo9hxW2xW08+wnJEulm5AmRu/tUMpTR9DhY29zk1t4N5cjJGOV0U4z5bRN1Y2ulgUSty/4mLKAbz5WuTCsLczXmRSfd3h+5oQXvfgzOfgvkiTVdDGQUluyggYOss57xwghu8Od6DNxPRnCm5UhVrzgUEB5PU/RC9hBayIk+J7fXPobnzu9ohwl3+Z/MrxWkRKn9mmBUtYu949Oc9NHekF0ktLjeAyemg9jca5cMFzHNu+xg4f6zDVSsgfFnNT4xR/Qvc94J0xnHPye0hx+E8OqR+7qPXgyMnwUVLelnGpQw8l7J9JoCOgDPjr5HxqT+eS9UjRn0igJAf8GK1S/bkZAueU+fifCOApwAfFvlL9EcAvfrZ7AsB9C3Hi5Q1VtatFoBuSU/6QAAcDwR1jy8ZHPsM0K+KQcYLYBFgnKREBsfGIjq2J8JoAYxHDFNBKMva9iCia28bLACeB4J6e2yKuLh17HqmtwC4HgjqFlWd2TImEJeBUmGskQKYCfmQ5DJ6twLTuyDjBNCjBDJE4xndGwnpnTTDMAFwPhDUHY6wHpeYdkL6V9rLKAEsxHxC5jI7eD+mg9vCjRHAyCrMB6Qls4f1T2EqYKEhAuB9IKg7LFbg44uYLlaNMUIA2ZjBkXor8LFdBaaPx1voL4CpoPx/p8jLZaBefqq7ADoVgYZmrKLQDAL10qkHstYCMG8ADcwuhUVP34P6eb6zvgJ4JiCeDMj04FrkmfUUwOBK0LAcVVw/sRFVAU/rKACEgaCuMUvxMeldqK5ar9VPAFmoQTnbUHnK6z5UZ/dF6SWAO1BDwt5c1wbJsN4u0UkArU+hRuR8tAoBmP+EVcAEXQSAMRDUJV5QlfV4L6y/p9vqIYBHpYB6ARCZ98N6vCZYewH0KYMNh9oK6mmwHjPuepQIIGwLbDBKYlQKIDQf1ueyPloL4FUp4F4ARJNxnZYdMapQAKOqYENRFK1aAMHbcBWQoakAmh/FjcQcUo/xuG4zjBhVIICVuIE4GemFAEw/4TrOMGKUWQD34YZBeoi8wQhgz3NMWgkAZyCoM/LDvBIA/Q9YAfdqJADYJJBq3OUd/9StAtd32RGjjAJIA+Z/Y5CXAkCbhWAHuRGjbAIYWgkcgmHe8k/RZ4Hdf04DATTcDxyAFeQ9ZgP7LzNilEkAHwD7Xx6ngQDC/wSOgOcRoywCuBvYe2keaYFbkUOwzEsBxBYCO3+soSYCgN4KetwGyQsAayCoI5K04Z/iSoGD4GnEqLwAkBdA0g8mjQSANxTBFuuC1QsgvgzYcWt/rfinqMPICnhCtQAa7ET2+3XSDonIgagYoFYAbyC7faSxhgJAvg6VpD2R6gQwFtlp6RYt+ae255BjkalKAGgDQe2xnLTFo9BPw20qBAA3ENR+89NaYwGEbEIOh5vkEI8CmA4t+amkNXqXI8fD9YhRTwKAGwhqh9UmzQVA/4F+IqYrFEAo9BuvtJv2/FPoVuiQ9FImgHnQcn+M9MAA5MQIaWuYEgFca0X2dbNZFwFgnwhLLykQQJODyJ5W9NWHf9QeybVwMWLUrQA+hJa6hfRCD+iVsfOIUXcCmATN/89m3QRAD0FHZgWjADogp0Gqn6LIVCkEfTrmNGLUtQAQB4LaIIn0BPb5uOPD4VoAT0Hzv5z0xegq5Og4fB5dCqAv9JHnwSY6C4Beh34+npQVAHYSiEwevBYI+x16izxITgCLoAX+LOmPPsh5ctLeSM8CuAWa/7x6BgiAZkHHaJFHAbQuQPZN1x2gzV5wBbQCbvcgAMyBoHX4GxmDyD+Qo2QzYtRJADOh+Z9HRqFrEXKcLo8YdRQA6EDQWqw3GyYAmgD9pMxwIwDsy66jrchAzEcOVelVrgWQjuxU+RAj+aeQ1cjBujRi1F4AI6EPOe8jY9ECOmVioQsBoA4ErcF7ZDQGIpcM144YtRNANjL/m+obLgDkXuKXRozaCmAqsjuFHckHgD41/8RBAHHngZ2pvNEX/JM5F1kBU+wEEPITsi8Pkm8QtQU4aOe72ArgWWT+3yRfoT1yflCe+bIABiOXPHwd4jMBUDzyl/OZOgHgDgStHo3RiHyIccAVNJVDLgkgC5j/ox3Ip0BOFN/3Ys2fycA+XBhAPgbyAXqx3R+IKL/R1/xT0CeSgM9ONCeT79HgF0GErzCHeECzrYIJ3+Bl4gPROwQXvsBiEycCoNg/BRvGY1kwcYMrjgg+jManIcQRehYIRoxFbhhxhd6FghMjsT6COMOgc4IV4/BbI+IOw0sEL0ZhS1PiEDeXCWaMwY4WxCVGFwtujMC2VsQphhUJdvRHXjPiFv3EblB3rIkijtHnhGBIX6yKIK7R9ZDgSE/khBHnaL9HsKQflpqJe8SI22Hd8EYQAaDFJsGUPsgwEQSarBFc6YCqOYSC0HcFXZqjIplwYLIIwjTG+TEEhcnlgjMtcTSewPCXs4I17bCtA8Gh537Bm1b4phEBIiZPMKfR9t9MkGiwUnCnASpTCRXB8wR9XuPUjQSMsWIp6CV+60jQ6LJNcOgN3qtP4IhcLlhUf/qXSvgwpVYKJtXh8DXkF7juuOBSDdbEkJ8gdoNgUzkyzeQ3CF8s+FSIcxPIr5AoagcV4ZfO5Gdo+71glRlV6fXI7xCUIkrHGHHgWvJL9NsluGXBsibkp6ifLtiVRVEy+TFuFbVjMthwBfk1YlcJjj2gcm4I+TlMyeKC0C0296cAQMwKwbRLlFjqUWAgQVSQusDarhQwaJRZJQi3x5mUIAokDNspOLdFThsKMISnVQjaL+HobRSAiP9VMH8R1tcbUkAiKElkilRf/A2kgEXj9IBPFysIsMWfI3oHdi+B8nlRFOhI2B24/Of2IAEyJwdob7m8awX5NWiyoDTw6M+/2ySYv3xJmB5gEihIDROs26FdZgAdDJ1LaygYd0KXD6yBQf+FF5sKtl2ie1YASOBCeivBtFv0zPbza8Lz6TGCZY8YsNKPJXDmueaCYVlc4a87guOWxoJdJrS0nPE/+vemhAtm2Y+GHjvoX/SvHhckWFWE4IR1fsN+WfZAQagKDFrqF9WER+a2FFyqROOUvej0r0s0Cx69QNDolcA5IwUvxQkKvUZMyhZI9q25SfUFe9ogPhNuJOVOS3vBm4ZocNfnQBMIjmdcIy77tV8RJuVCnBIXZyeIdZ9OaDtzPef3hUUfjBcHfrqiWVIOt9+C01mJDQRD+qP55OUcrgn3LBwp3vyGod7IhTyNqK1YPaubIMVodEzO5qL75N7MRHHN6yMED3pydbFPz/k/nCq2+z5GSHxqzmmfkJ+dEi92+5yIoO/9WUZ2oSz9YcEdbUXYOUPTMZbPDujOffmmxQ8OqCeiza0KRsx6/zedcgoLVmdMiQ8VMQZYG8aNe/z9n7XbIljzv31t2vXRIrBob4P+dz65ZNWuEvXMn9qckzHj5m7iqcdGi75jpz316sdrd7C9E0qPbsl9b37qpFHdxbmu36FR+97XjZuYPD316bTXMzMz38zOzl6amZmZmZ72r9R/Tkkcc033VgGWxPH/sFfGtrShOnAAAAAASUVORK5CYII=;" vertex="1" parent="1">
                    <mxGeometry x="790" y="316.5" width="90" height="90" as="geometry"/>
                </mxCell>
                <mxCell id="3" value="" style="shape=image;verticalLabelPosition=bottom;labelBackgroundColor=#ffffff;verticalAlign=top;aspect=fixed;imageAspect=0;image=data:image/png,iVBORw0KGgoAAAANSUhEUgAAAEAAAABACAYAAACqaXHeAAAACXBIWXMAAAsSAAALEgHS3X78AAAXNUlEQVR42u1bCXQVVZrO4iyne86054z2eLoBF8AVU/Xeq3rvJfa0dqs9jto6R5slKOJut9ot4z6IJCyyJe+9BLJAIAFE3NqVFm3EBRAXIKwOENkSCJCdLWR9VffO99976716yQsGPD3d54w557fuq6p77/99//ff+1eVpKR8//f93//vv/BoPaVojJ6u2re9+5ingL8ZuNB9T13YSK8Lm6n1EVP8pqPT/lv4g3/wx1C+GfQ7lXx238MX+rXXH/aUzBqlZdHv2XfqaTECQtlaKrVxfHfxgyZf8YT3eFOB+frROeYNF/3kslQ3EQCeJiYhEsLy+Nf6qw+bKXUF0g8VFApUmnN95VPefzxRbI44FDI+QGA7Fj/o58CYp7Cmh7N1QYAD/jy0j4SydT5zpMaXPebjh0ImPzLb3HIwZIzDIOclMB42091KICIa/g/IcIiXBJAfBpSZGO2D+cZF8HcifN99IM/PX3vYx2eM0OyCO3QOjNvzRmlnieBna/QfR/7amKK7vHSDFRmts+kjtGjJXXp05wsmj5YFOUC3HA4b8wA40DM9pCpMJcW/THrUUbSFvOX4CEAa2jHgO6dfQ+evg4+v4NhGPlfmGBygozNGagITsDEcCaNIg9BopAEinqoIeL1krJckEoXRjQxMcVgUUupqmW3yznlBjsHJPkUkxsCJf3IRQSSkK+diEv0uf9W51yQorF6Ap/XIcKflubjnEZBR2Vzo513Kx2WPebugZCs/W+OEhTABeLT0bh9H0Kc5aZAiG/q5YKNZScQOyw7Upk4kH/bq7zzR/bOM7uZCkx0vCvDWkgBNVIOJp8GpS5OoIrW73EjpmE9mnqEZKZ0LRMRT63ssaiDEh3mKcK2xrTTIj8EnBMneNd3oWni/bpHPYRltB4tQ9+wxHiJgGyzNtRNo2UVjEP3RmhWWTDE3CRFJAi8dq9tbJ/ksTGRhchz9vH0upYfZBUfegt1EKvjLLXrGD6CCbMyxkqJMc2OxpkBEyad1E3wWVneb1rBIIniJKVt3SCELuAl4meQP8FHXDWoAnbtTgtqfPO21MTFrKDBt5FwUix9vKw3wY3P85Mw2EPJEQ8T4CV9lpraWGmd1zjfTEdH0zn4aIi+OJ9CXrxbb72CMORlK29taHFMfp7nJDwSDLf8vrz1rpMZ6SD6m4nhbi5aO9VF7srMNngPgjUL+2Zrdo0NsADWgIITkhT3VPpBnMKQEOUJOROGUfawIqiilPDRa2sqMzZDwVgDa2nlaRn3MrZ0LjK2tc82tAH+yA9E+Igkm9UVpTlqX9sww7MUPeOwkkmdJsJD8rTkyDTaLDQCM/EfBHR4AFOz0lImbhF4pMe9u3f56ss+GI0QA7RSMHAT4aCOk2Tnfz/mLsMVnaOjbPs/PG8TCKwlWc1C+sw3P++w5Y3TWp+ST4AiNlkTh2A28Q2kv9MIsyY6WrFNfJMRSYtUzSIlCkRJCDXCQCLFBgoXoW1ABjv2zzvnxPu1lBpGJiJtiTBq7UeY8e/9xSH7Ut0o+iTn1gHYEJPwLbQX/DBM7QEimAP8Wi6VExJUSbzzisWvzYylBEQMJJkceM0iZARwnA7A+zbmHrAt9jpXIMSjqNCZJfu8Mgy15MKnk+wGeFkJNpYBWGaYKGEykwr4SJ0cLJbB+ktArJcru0dn2KSIlyGl+OARCqH4QBMRIYN9GgLqfNxKZobjkKyf67KLTk3wvozpH1TtL3Q9EL5bIlTHan0ESd4l4SkCSor3mWa9N9QLlLkWvbZ4ALUDR8dQEGOI6Fj9G4EnyGIf9+QmvnUeSHxWXPKmvv8DVAkj9uufKYig3RgCKoAniJC0M2acxYNKU0OhZgr31qMfGMwSjfbqlKJYGggQHZCJ4ed5RQNNsg1M6Vc802NKHzljyyQJmS7Xro90KGDH7To+zBpzuoH2mxIJ7dXvHVMPGUyVrF9E3uENCcgIkeGyf9BDGNuX67OK7vpvkE+QfC5Zuw3xuAjQqE8+Q1T53CUqJyB06Wzvea5+ca9oKKOsjDcQ60VVu8uMlJlv5pNeG3MVOc8aS75UCagfIxg6QrZ0dJyBb+xGsxVUM8e9gVE/EUoLaU3+js0+f8XRbFc5CmDQFRIpg9efv/EFn1CcyWvuuku9rB9gIS0t8M5StfTZnjCiHrTOfROMSvCyqCMCMkR5WcfcwvmviYLuLQC4w+14DqF3mZVufvYiXjMngM0c5JIjoMzn+mQcH+36UFnscF0rMsbdC2g9wwwrnfcCZMR0D77QZgX/1gctZbc4g3jLtfIbChnWeggBKg5OlHn7khYFs7/Pns4X3DBMERnqPfSbBYa4tcL5K/VSHgMdKBTN4FD51Ndjn4E7kIypaiB5f/sglrGHyQDJeNxkEzPOemgDk/8kSjR+eNIg3TRnID+UO4m88dBkR6czhUsLp++lUi5QGGOeWFDcLkMV0dcE+vcETweeNkufWPj6UNU8dyOsnD2J1AETHtlLPtxDg561FGbxu0kBBAhFHRKz8w8VYUHWeDwVEzpwEsZAW0nPPaP2BhBQA+HNgHxTeKS7aof6poMeqT/u/zkvvymBfI4dbpg4gEASe1QMQQLGTxRqjKPckQNUAgoATs4fxulxBHCfiqD+Ntf7JwXBeE0T0WBxZv0pg8aAndwFgrcDvf4gXQtn6ELBxSK2QVj9kFCtKaJsjh6aP0NmS+4bZ1RPP54g8i4GfLEwQgOgyAtmXArpw7XjB5fxw7gBBgCJBjEUkVD13IZt/95UoiiQJkUTwrB91gFVM61y2vhEEnJ3ilgGOZ8P2kArC2XpCQeTahoRF5Kszel/Ipw8XkWfLx2VE66cMshunCPkC9EBH+hJI7kCG6MYIcBdDjgK6Kvz8aPgyfjhnQEwB9bR+KBKapgzgByddYL3xqBadNly8uOX5svx2fOrLZ+Z6D7DG9SJIPgwpAn5HN6nnZffjpajCIir69NZl2nBRoLB5ePhZjhp9+zSvdWTGhUrqArwj3xgBiCpDdFlXEgW4U+BI6JKYAuomuceRxDZMHsCbZw6xt0z1We+O87DSsXqCT0qVvXI/To7WCrtZvRRNo/xPU+vArQXxjrYCLWv7ESLSYpBFD+js42e9bPcsH2vFtmYvMtmJ0BARtbrJMfCO/OME5AxgiC6jKMcA9yIAzw15F0Mt8RRw0sBFLKPrbYWXcHuxnx2ba7CdM3xsxVNeVn6fTu8HBBlUPofUuwJVRlsy//U2mE9hBgF3eFKcqggdHqV9EoPYkBejer7wTp2/+rCHf/68l9VGDN6OWp0tNgk4717o5y2hS/khgKt3gXfy3omiUoCIrkqB5ASgjej2IkAZo3VEjIk2zXms8Arhg73I4BSINiirOuTjq8d72UsPeURaUJrQRxGqIeTzjn5jwitx+joSuUNLQYRFKkBGJWX3ePk7j3msjZO9rKGIFieT88UmtxaaYhWnB5uOCj85wA4jt+vUVqcixXsaOU8EILrUv9cToQOejk3TB/fcBXoazafmwrpSnME6yv3yYQu+WSACARLtw4UGX5fjZW/gybR0rIfWrCcVxnRFgpCBIOKbmT5x8kip8YuTZRIsQLPuCjiG+lyAXiBMgDhZciWnfKyH0X5dL9oD+zRElVF043W/wZMQwBqnXQhgYizW93hqTtzXOHUQb5+rc0EsfGtfIFQqCIguFIFjwMJbSoxOXD+fMB6IGKr20VNS8PiZgospuFGkAToW81eDBDTaLmr3GHBhYh+HswenXsprnh/CD+QO5Qdy6DiY1wq7iB8UdiE/NOkCLFxk50MBg3jj9MHMiXwSBbAOPAbXT7lALHboI/qT0Vg0Zq2wwWIuOedQXg0f6mdcrvwyepnCEOWvCEyPE0YQk15bIL8vEuAUABJtSP2HuGm/vchPN9vuQR3gTrsp4udVEzx8x3M63zkB9lzcqiZo0p6Tx28maGzn+AxeM9WjHoV7pYA4115msr25Oqt6LoP6sdg4ytxz0Jw7xuv8m4le8bq8s9xQ/pkxMuio2hZ/KUBHsQWeLDNSOoCbgi9JWCC/5uB4M72K7ig3bBGRcpnzcVNPbOXErJ/XzQrwb54nh8hBXQDeqRzdHiNDZ3CW7Riv8QPT46/G3O8GZZvO+Vn1FEPcS32qFLHb3cSquWjOXRM9vDEUjPnkHN0+dygctI7hGMW5K1Tg0xR4wUaaaleQVHDEjUYP8G6JyYmOFQX54ZlBIoEpEhicFZHbn6sxRJ4UwmT0NHYYhMVfeia+C6Rz7WV+Xjvdjz6yLwHf/bzGanI0Mb4cW861O8fD6mZl8hMlgQTwjgJcxgQWSoOXgxTc8YQVmNOFAnDRSYWz0a6zFgk52Z29om/2YhqS5U3hLCiBSPAIoAcnSckvfdDLRl4fYGX3+Nh+AoB0aQhlMpK582qsBwG8bZ6f1eUFGaUV+vAXsg121w1+9s4jXrZ3osZqJwkiAd7L6vMyeXMkM8GnJODdZvElRJa53qkEKf3pP1L+5cZwuoHyRYBf0FsBvUioMMRX2Yb8LNaQF+TbxntY/mgfu/HqANeMTH6FL5OP/FVARH/vJC9rDGepN8QGT6IA3lrqZ/X5mXxfrodteFpnv7o6yIdhDN3M5Lf9MsBLx3pZ1URszbiH5jxR4hc+nCL6iSqIp7JPKT4NUjAc+b9CEsEN0Y7y5ODdJMTXAhN5mMmaoYRvpgXtskf81rjhAfuWa4PsqswgG6JlMvry3DjT4A0g4ORck/dFAAGqD2Wx+mk+PuF2gw/OyGT/lhVkt10fZE+NCthLxvmt6pmZdlMoC4twkJ1G9FUamGI3QHuKTAP1yR03/BgXm2nfxNHuSCL/U6ngeHEA+ZjFTxQFbb7UYHyRwY6WmmzjCyab94ifFd5nUv6TAnjrXH9CCrg+hvDjJX5GKbXvBT+bPtZkLz7mZ9tmoNSehzEXw14y2JHCoF2fp8Yp71f03Yu4RYs82ts6VeAdAu6ibQJOWAo8+7bB3CqglbYpnMlb4FybKEZQJldQEWJwcjq6kL7kBiHdLCHzxEVQqqGrXBJZj3uOFgVQakvAIBNPiag+cW8bSGuKZNotBZk0L3N86B94iYuKJRXoq9wEvM2XyuKn0zVo3JzJRFHhFEfMtSMwOC8IcDmG8hQV43xJ0sm5kLfMWxb/PuD6Flgu1xO6hxbXDuozXwBnciuTRGPhs0GiiwC3L45/bp8TLFYUAWe+AI9K6ac4eUKVvO4BespHqIKiAWOuozC6hi3JlpPIyeL7sByzMZxJRDECqwhgbgKOzgmy5nh0mXsMR2k0RxIfxLGzItFXt1Ljfhk2fXpHexfWo79P6aowfstfhvwrTEsBYe5iws0mlZX0tReGfEXUS3zsWDGsyMeOFvkgXcNOAB6PApykrz1B3BsnoOcHUXEdSuqqMNQCp0hYIInHffbROYZFc9GcNDd8EL6QT614NG6fn6gAdxFH40mM9ETrpzGvS2mda66wKwKInmHRQMeKEYkik2EiOISHiEI8ohYYyD0qf022b7LHcooeUf3Jo6jeqqd4LPSxT841nCg4JCA65KSfZO7+XO6oQKQFCKBaILauxAEYDH5a8MXak4v5xzvza6wqVjFqKLW9VnMBrROG8Jl8JwyE5RgwETZJltnNFweJsDkpjWHzpY6SIORpRBvoa2zIQNvEio12mGRrxn4TCXV5hoUJbVWTU1UmHAABbP8LcCBC94O8OfSNL7YFCRD0mxY496dy9aWItlOoKCBy3lWDUB8LY1lqfkYkOwQ4gaAjqlEb/ttNan6X785viS0k2tHOUsJs5qaArbHtKCfR0aIJpBlcRVyZ+E0kcGKYgBJglwJEsXNwho8iEHOA+hwrkuDo/YG9ELsCUs2qMG0bKQFjyrgFsHwhPbqCrAqRo/bxYoN8shWIfs+tfGbJMCh8rEXca/4MBJhDYJ3UmS7EB4ibc851tHfn6AmpIGv9RCckEX5BaFtRBjsw28/y7g/Yj48I2E+PCvCnpDFq4xwrfRiBKIZSSjKspgK/RVFzkc9o7NrpPstRnRP9vZM8MnixaMfAJsNhH5vtp98HYT9EChip6FjZWuR3q4CfigRyhMA6jjhE1OeLiEknyOmCAGsK6bwxX2cNbz0b/f39Y6yhw7wobbN4hi+TKRNt3chiF19p8HH3Drealt5vN84ahucMVJARjBE2YvMemplAAJntntd9TGqQfxfkj+NrsToALEei80ROdPeWTiIJDsMkR8rHHTIfKQdVnsJZQSIIzRvGG0qut2o/Lrf2bFlnjxz+m6hp+PjPrspiV2UFuTLRpnOm6eO333Z7dM/Gz9mh5TN5Y2EWa8q7UpDQqAJDYB3VUSocmCYXPifqpwYvAiPyHwT8Pk5A2LztxBy/kHZfCkjGMC06tPiQAmh1FuQUQMYhL2/Kz2CHl/7Wql73ob3/60pe9cVK+9+vv9YKBAI8KyuLZWZmJhido2vXX/sLa8fnH1o1/7OJ16x9k9VXjGREpJizQProzElpqHzuT/QFiWKRpnUlYmpuAs5D9I8fkQsD6y8JJElafLb/t4bt0Yu8DbBmiticn9u1HxRY+7auY3s3reW1W9fy9SuXdQOk7fMZ3DT93DDNBKNzPsMQ5Hy14u3ug+izd/OXbB/6H3w7RyogXxNq2J0jdoKka06f0RfqwMIqAm1WYby/c8CLI0580lYc2w36HiTiXuBEOwqHOqsnZXS35A+z6hbdadV8sczat20Dr964mu+tXMXqtq/ny16u6L72l7+wbv31Tdavb7oxqdG1a67+ufX2kvnddTvW870bPmXVG9ewfdsq+f7VS1l92a28Oe8Ka0+O1g3CaeGObY+Of6fwXeR/91wh//kSMx6IGtX/hY0bJkXpYoTWgYSBXBMYtNISk0RSlM61oYY4gYKjoeBqXrd8Gt+3+cvufZu/4PsAfB85D6vd9iVf+/4b3SvfXGJXfvQuIvwWW7fi7QSjc3Ttg9cW2av/9Hr3QfTZq/qLsbasY9WVq6INbz9LL1Z4exF9SQ44UY82kU9hsRMwJ9/dOISCwoZFQUZ7rAp6OikgTSnhuqOFdKMsGpricpJtsEcLCEmOBumSZCGX/JubZ13+XM2yWQ/v2vTV0aaqjbxm02dWzea10epNnzFlfPf6T6ObP32PbfrkT/xUtgX34F6L+jj9aayaTWuiTbs2812bvjxU+8q4e7E4zsDcO8kfiurJooACaigyjDgZKv/F3h8xO2AXKQJSYymA44/QuV6RQAuLLUEbFnXsoHdvcvXshK2BPQvTmnPPja0llcuXDNm25oNP90H6tVs/53s2rOKIYBQAWNVXH0c3rHzHrvx4GadIJzVcwz2s6suPRB/quxtjHMBY1ZvW8K/XvP/JhvdeHBRbu/L1swA0E0Amw99K+GNTYChAYm2QZERlQE2LFIPjhsaQX6Y9YccAlAupioR31DrQdQREEGCqEnFjK859QFsHbGjP/4+/ceZl6TVv5pzl/P7qz2/eDCDLNn68zN69/hO+/fMP+dbV73cBZBTnpFH7o2XK4ufpHrp3++crOPXFObbho3eXY8xbnPFrXnnyrKYZlyT8u4TmiJ/8z4A9A0JWA1cn+U+Bk5E3Omn/x7WQxGqkN0ZMuQji4lnq5BN80VX8OFVKYbMZwN/A8V6cH5AAOGLQmpEOS4MMU+pKbhDnt6xansY5jyvio3czYLNhTVVfruSILJfHU5m8B31aYMUwPfZP3zD2llXviZSlOQmA8KHHvyZRWIbC/0fh//s4nqDAsrJMIuA/Y/kfL4TMVHX0wl5GpxGwcxJAo2KkiXA+VZDm7B44QroE1gGdgqilI99j/64H7R/j3JO49kdE/FUytOn4GplqO+f/iHufQZ9/dfVPpTFjc2A+qMa9g5HvYj2DPwiMkajQsPlTEHIfrr9CW75Se2pj+G/n3z5+//f93/d/f52//wWiN4MWwFRkawAAAABJRU5ErkJggg==;" vertex="1" parent="1">
                    <mxGeometry x="530" y="520" width="80" height="80" as="geometry"/>
                </mxCell>
                <mxCell id="7" value="MetaMask" style="text;html=1;resizable=0;autosize=1;align=center;verticalAlign=middle;points=[];fillColor=none;strokeColor=none;rounded=0;labelBackgroundColor=#ffffff;fontFamily=Helvetica;fontSize=24;fontColor=default;" vertex="1" parent="1">
                    <mxGeometry x="500" y="600" width="130" height="30" as="geometry"/>
                </mxCell>
                <mxCell id="8" value="Moralis" style="text;html=1;resizable=0;autosize=1;align=center;verticalAlign=middle;points=[];fillColor=none;strokeColor=none;rounded=0;labelBackgroundColor=#ffffff;fontFamily=Helvetica;fontSize=24;fontColor=default;" vertex="1" parent="1">
                    <mxGeometry x="525" y="406.5" width="90" height="30" as="geometry"/>
                </mxCell>
                <mxCell id="9" value="Ether Test Net" style="text;html=1;resizable=0;autosize=1;align=center;verticalAlign=middle;points=[];fillColor=none;strokeColor=none;rounded=0;labelBackgroundColor=#ffffff;fontFamily=Helvetica;fontSize=24;fontColor=default;" vertex="1" parent="1">
                    <mxGeometry x="750" y="413" width="170" height="30" as="geometry"/>
                </mxCell>
                <mxCell id="10" value="" style="fontColor=#0066CC;verticalAlign=top;verticalLabelPosition=bottom;labelPosition=center;align=center;html=1;outlineConnect=0;fillColor=#CCCCCC;strokeColor=#6881B3;gradientColor=none;gradientDirection=north;strokeWidth=2;shape=mxgraph.networks.virtual_pc;labelBackgroundColor=#ffffff;fontFamily=Helvetica;fontSize=24;" vertex="1" parent="1">
                    <mxGeometry x="250" y="338" width="125" height="85" as="geometry"/>
                </mxCell>
                <mxCell id="11" value="" style="shape=doubleArrow;whiteSpace=wrap;html=1;labelBackgroundColor=#ffffff;fontFamily=Helvetica;fontSize=24;fontColor=default;strokeColor=default;fillColor=default;" vertex="1" parent="1">
                    <mxGeometry x="390" y="353" width="100" height="60" as="geometry"/>
                </mxCell>
                <mxCell id="12" value="" style="shape=doubleArrow;whiteSpace=wrap;html=1;labelBackgroundColor=#ffffff;fontFamily=Helvetica;fontSize=24;fontColor=default;strokeColor=default;fillColor=default;rotation=45;" vertex="1" parent="1">
                    <mxGeometry x="365" y="470" width="135" height="60" as="geometry"/>
                </mxCell>
                <mxCell id="14" value="" style="shape=doubleArrow;whiteSpace=wrap;html=1;labelBackgroundColor=#ffffff;fontFamily=Helvetica;fontSize=24;fontColor=default;strokeColor=default;fillColor=default;" vertex="1" parent="1">
                    <mxGeometry x="650" y="350.5" width="100" height="60" as="geometry"/>
                </mxCell>
            </root>
        </mxGraphModel>
    </diagram>
</mxfile>